# xmcd
#
# Track frame offsets: 
#        150
#        22339
#        33656
#        58211
#        71010
#        101830
#        116905
#        141294
#        164730
#        210242
#
# Disc length: 3225 seconds
#
# Revision: 0
# Processed by: cddbd v1.5.2PL0 Copyright (c) Steve Scherf et al.
# Submitted via: ExactAudioCopy v1.0b3
#
DISCID=a10c970a
DTITLE=Kalle Sändare - Boxen e' klar - CD 10 - Det som katten gör i lå
DTITLE=dan
DYEAR=2014
DGENRE=Comedy
TTITLE0=Leonard lindansaren
TTITLE1=En regnig sommar
TTITLE2=Steens, go' middag!
TTITLE3=När den stunden kommer
TTITLE4=Folkparken
TTITLE5=Parkeringsbyrån
TTITLE6=Instruktion i punkdans
TTITLE7=Värdshuset
TTITLE8=Fem stycken, katten skiter
TTITLE9=Byte av hund
EXTD=
EXTT0=
EXTT1=
EXTT2=
EXTT3=
EXTT4=
EXTT5=
EXTT6=
EXTT7=
EXTT8=
EXTT9=
PLAYORDER=
